<svg width="765" height="766" viewBox="0 0 765 766" fill="none" xmlns="http://www.w3.org/2000/svg">
<g clip-path="url(#clip0_22_2775)">
<rect x="0.127853" y="383" width="93" height="91" transform="rotate(-45 0.127853 383)" fill="url(#paint0_radial_22_2775)"/>
<rect x="157.106" y="226.022" width="93" height="91" transform="rotate(-45 157.106 226.022)" fill="url(#paint1_radial_22_2775)"/>
<rect x="314.083" y="69.0446" width="93" height="91" transform="rotate(-45 314.083 69.0446)" fill="url(#paint2_radial_22_2775)"/>
<rect x="234.18" y="303.097" width="93" height="91" transform="rotate(-45 234.18 303.097)" fill="url(#paint3_radial_22_2775)"/>
<rect x="312.669" y="224.608" width="93" height="91" transform="rotate(-45 312.669 224.608)" fill="url(#paint4_radial_22_2775)"/>
<rect x="232.766" y="458.66" width="93" height="91" transform="rotate(-45 232.766 458.66)" fill="url(#paint5_radial_22_2775)"/>
<rect x="389.744" y="301.683" width="93" height="91" transform="rotate(-45 389.744 301.683)" fill="url(#paint6_radial_22_2775)"/>
<rect x="545.307" y="300.268" width="93" height="91" transform="rotate(-45 545.307 300.268)" fill="url(#paint7_radial_22_2775)"/>
<rect x="465.404" y="534.321" width="93" height="91" transform="rotate(-45 465.404 534.321)" fill="url(#paint8_radial_22_2775)"/>
</g>
<defs>
<radialGradient id="paint0_radial_22_2775" cx="0" cy="0" r="1" gradientUnits="userSpaceOnUse" gradientTransform="translate(82.6279 492.5) rotate(-120.964) scale(180.76 184.732)">
<stop stop-color="#00D47F"/>
<stop offset="1" stop-color="#00681F"/>
</radialGradient>
<radialGradient id="paint1_radial_22_2775" cx="0" cy="0" r="1" gradientUnits="userSpaceOnUse" gradientTransform="translate(239.606 335.522) rotate(-120.964) scale(180.76 184.732)">
<stop stop-color="#00D47F"/>
<stop offset="1" stop-color="#00681F"/>
</radialGradient>
<radialGradient id="paint2_radial_22_2775" cx="0" cy="0" r="1" gradientUnits="userSpaceOnUse" gradientTransform="translate(396.583 178.545) rotate(-120.964) scale(180.76 184.732)">
<stop stop-color="#00D47F"/>
<stop offset="1" stop-color="#00681F"/>
</radialGradient>
<radialGradient id="paint3_radial_22_2775" cx="0" cy="0" r="1" gradientUnits="userSpaceOnUse" gradientTransform="translate(316.68 412.597) rotate(-120.964) scale(180.76 184.732)">
<stop stop-color="#00D47F"/>
<stop offset="1" stop-color="#00681F"/>
</radialGradient>
<radialGradient id="paint4_radial_22_2775" cx="0" cy="0" r="1" gradientUnits="userSpaceOnUse" gradientTransform="translate(395.169 334.108) rotate(-120.964) scale(180.76 184.732)">
<stop stop-color="#00D47F"/>
<stop offset="1" stop-color="#00681F"/>
</radialGradient>
<radialGradient id="paint5_radial_22_2775" cx="0" cy="0" r="1" gradientUnits="userSpaceOnUse" gradientTransform="translate(315.266 568.16) rotate(-120.964) scale(180.76 184.732)">
<stop stop-color="#00D47F"/>
<stop offset="1" stop-color="#00681F"/>
</radialGradient>
<radialGradient id="paint6_radial_22_2775" cx="0" cy="0" r="1" gradientUnits="userSpaceOnUse" gradientTransform="translate(472.244 411.183) rotate(-120.964) scale(180.76 184.732)">
<stop stop-color="#00D47F"/>
<stop offset="1" stop-color="#00681F"/>
</radialGradient>
<radialGradient id="paint7_radial_22_2775" cx="0" cy="0" r="1" gradientUnits="userSpaceOnUse" gradientTransform="translate(627.807 409.768) rotate(-120.964) scale(180.76 184.732)">
<stop stop-color="#00D47F"/>
<stop offset="1" stop-color="#00681F"/>
</radialGradient>
<radialGradient id="paint8_radial_22_2775" cx="0" cy="0" r="1" gradientUnits="userSpaceOnUse" gradientTransform="translate(547.904 643.821) rotate(-120.964) scale(180.76 184.732)">
<stop stop-color="#00D47F"/>
<stop offset="1" stop-color="#00681F"/>
</radialGradient>
<clipPath id="clip0_22_2775">
<rect width="540.846" height="540.846" fill="white" transform="translate(0.127853 383) rotate(-45)"/>
</clipPath>
</defs>
</svg>
