<svg width="24" height="24" viewBox="0 0 24 24" fill="none" xmlns="http://www.w3.org/2000/svg">
<path d="M19.9183 7L12 12.2789L4.08167 7L11.7781 1.86903C11.9125 1.77946 12.0875 1.77946 12.2219 1.86903L19.9183 7ZM20.4 8.12111V17.4648C20.4 17.5986 20.3332 17.7234 20.2219 17.7976L12.6 22.8789V13.3211L20.4 8.12111ZM11.4 13.3211V22.8789L3.77812 17.7976C3.66684 17.7234 3.6 17.5986 3.6 17.4648V8.12111L11.4 13.3211Z" stroke="#D9D9D9" stroke-width="1.2" stroke-linejoin="bevel"/>
<path d="M8.65559 16.235C8.65559 17.0634 8.18493 17.3158 7.53993 16.8625C6.89494 16.4093 6.40683 15.5468 6.40683 14.7184C6.40683 13.8899 6.89492 13.7945 7.5225 14.1954C8.15008 14.5963 8.65559 15.4065 8.65559 16.235Z" fill="#D9D9D9"/>
<path d="M14.1807 18.1432C14.1807 18.9716 14.6514 19.224 15.2964 18.7708C15.9414 18.3175 16.4295 17.455 16.4295 16.6266C16.4295 15.7982 15.9414 15.7027 15.3138 16.1036C14.6863 16.5046 14.1807 17.3148 14.1807 18.1432Z" fill="#D9D9D9"/>
<path d="M16.651 13.6285C16.651 14.4569 17.1216 14.7093 17.7666 14.256C18.4116 13.8028 18.8997 12.9403 18.8997 12.1119C18.8997 11.2834 18.4116 11.188 17.784 11.5889C17.1565 11.9898 16.651 12.8 16.651 13.6285Z" fill="#D9D9D9"/>
</svg>
