<svg width="20" height="25" viewBox="0 0 20 25" fill="none" xmlns="http://www.w3.org/2000/svg">
<path d="M10 24L18.5547 18.2969C18.8329 18.1114 19 17.7992 19 17.4648V7M10 24L1.4453 18.2969C1.1671 18.1114 1 17.7992 1 17.4648V7M10 24V13M19 7L10.5547 1.3698C10.2188 1.14587 9.7812 1.14587 9.4453 1.3698L1 7M19 7L10 13M1 7L10 13" stroke="#D9D9D9" stroke-width="1.5" stroke-linejoin="bevel"/>
<path d="M6.65562 16.235C6.65562 17.0634 6.18496 17.3158 5.53996 16.8625C4.89497 16.4093 4.40686 15.5468 4.40686 14.7184C4.40686 13.8899 4.89495 13.7945 5.52253 14.1954C6.15011 14.5963 6.65562 15.4065 6.65562 16.235Z" fill="#D9D9D9"/>
<path d="M12.1807 18.1432C12.1807 18.9716 12.6514 19.224 13.2964 18.7708C13.9414 18.3175 14.4295 17.455 14.4295 16.6266C14.4295 15.7982 13.9414 15.7027 13.3138 16.1036C12.6863 16.5046 12.1807 17.3148 12.1807 18.1432Z" fill="#D9D9D9"/>
<path d="M14.651 13.6285C14.651 14.4569 15.1216 14.7093 15.7666 14.256C16.4116 13.8028 16.8997 12.9403 16.8997 12.1119C16.8997 11.2834 16.4116 11.188 15.784 11.5889C15.1565 11.9898 14.651 12.8 14.651 13.6285Z" fill="#D9D9D9"/>
</svg>
